<svg width="94" height="13" viewBox="0 0 94 13" fill="none" xmlns="http://www.w3.org/2000/svg">
<g style="mix-blend-mode:hard-light" opacity="0.5">
<mask id="path-1-outside-1_831_54" maskUnits="userSpaceOnUse" x="-1" y="-1" width="96" height="15" fill="black">
<rect fill="white" x="-1" y="-1" width="96" height="15"/>
<path d="M6 12.25V10.5H4.25V8.75H2.5V7H0.75V5.25H2.5V3.5H4.25V1.75H6V0H9.5V1.75H7.75V3.5H6V5.25H4.25V7H6V8.75H7.75V10.5H9.5V12.25H6ZM25.25 0V1.75H23.5V0H25.25ZM21.75 1.75H23.5V3.5H21.75V1.75ZM20 3.5H21.75V5.25H20V3.5ZM18.25 5.25H20V7H18.25V5.25ZM16.5 7H18.25V8.75H16.5V7ZM14.75 8.75H16.5V10.5H14.75V8.75ZM13 10.5H14.75V12.25H13V10.5ZM27 12.25V0H30.5V5.25H35.75V0H39.25V12.25H35.75V7H30.5V12.25H27ZM46.25 12.25V1.75H42.75V0H53.25V1.75H49.75V12.25H46.25ZM55 12.25V0H58.5V1.75H60.25V3.5H62V1.75H63.75V0H67.25V12.25H63.75V5.25H62V8.75H60.25V5.25H58.5V12.25H55ZM70.75 12.25V0H74.25V10.5H81.25V12.25H70.75ZM84.75 12.25V10.5H86.5V8.75H88.25V7H90V5.25H88.25V3.5H86.5V1.75H84.75V0H88.25V1.75H90V3.5H91.75V5.25H93.5V7H91.75V8.75H90V10.5H88.25V12.25H84.75Z"/>
</mask>
<path d="M6 12.25V10.5H4.25V8.75H2.5V7H0.75V5.25H2.5V3.5H4.25V1.75H6V0H9.5V1.75H7.75V3.5H6V5.25H4.25V7H6V8.75H7.75V10.5H9.5V12.25H6ZM25.25 0V1.75H23.5V0H25.25ZM21.75 1.75H23.5V3.5H21.75V1.75ZM20 3.5H21.75V5.25H20V3.5ZM18.25 5.25H20V7H18.25V5.25ZM16.5 7H18.25V8.75H16.5V7ZM14.75 8.75H16.5V10.5H14.75V8.75ZM13 10.5H14.75V12.25H13V10.5ZM27 12.25V0H30.5V5.25H35.75V0H39.25V12.25H35.75V7H30.5V12.25H27ZM46.25 12.25V1.75H42.75V0H53.25V1.75H49.75V12.25H46.25ZM55 12.25V0H58.5V1.75H60.25V3.5H62V1.75H63.75V0H67.25V12.25H63.75V5.25H62V8.75H60.25V5.25H58.5V12.25H55ZM70.75 12.25V0H74.25V10.5H81.25V12.25H70.75ZM84.75 12.25V10.5H86.5V8.75H88.25V7H90V5.25H88.25V3.5H86.5V1.75H84.75V0H88.25V1.75H90V3.5H91.75V5.25H93.5V7H91.75V8.75H90V10.5H88.25V12.25H84.75Z" fill="black"/>
<path d="M6 12.25H5V13.25H6V12.25ZM6 10.5H7V9.5H6V10.5ZM4.25 10.5H3.25V11.5H4.25V10.5ZM4.25 8.75H5.25V7.75H4.25V8.75ZM2.5 8.75H1.5V9.75H2.5V8.75ZM2.5 7H3.5V6H2.5V7ZM0.75 7H-0.25V8H0.75V7ZM0.75 5.25V4.25H-0.25V5.25H0.75ZM2.5 5.25V6.25H3.5V5.25H2.5ZM2.5 3.5V2.5H1.5V3.5H2.5ZM4.25 3.5V4.5H5.25V3.5H4.25ZM4.25 1.75V0.749999H3.25V1.75H4.25ZM6 1.75V2.75H7V1.75H6ZM6 0V-1H5V0H6ZM9.5 0H10.5V-1H9.5V0ZM9.5 1.75V2.75H10.5V1.75H9.5ZM7.75 1.75V0.749999H6.75V1.75H7.75ZM7.75 3.5V4.5H8.75V3.5H7.75ZM6 3.5V2.5H5V3.5H6ZM6 5.25V6.25H7V5.25H6ZM4.25 5.25V4.25H3.25V5.25H4.25ZM4.25 7H3.25V8H4.25V7ZM6 7H7V6H6V7ZM6 8.75H5V9.75H6V8.75ZM7.75 8.75H8.75V7.75H7.75V8.75ZM7.75 10.5H6.75V11.5H7.75V10.5ZM9.5 10.5H10.5V9.5H9.5V10.5ZM9.5 12.25V13.25H10.5V12.25H9.5ZM7 12.25V10.5H5V12.25H7ZM6 9.5H4.25V11.5H6V9.5ZM5.25 10.5V8.75H3.25V10.5H5.25ZM4.25 7.75H2.5V9.75H4.25V7.75ZM3.5 8.75V7H1.5V8.75H3.5ZM2.5 6H0.75V8H2.5V6ZM1.75 7V5.25H-0.25V7H1.75ZM0.75 6.25H2.5V4.25H0.75V6.25ZM3.5 5.25V3.5H1.5V5.25H3.5ZM2.5 4.5H4.25V2.5H2.5V4.5ZM5.25 3.5V1.75H3.25V3.5H5.25ZM4.25 2.75H6V0.749999H4.25V2.75ZM7 1.75V0H5V1.75H7ZM6 1H9.5V-1H6V1ZM8.5 0V1.75H10.5V0H8.5ZM9.5 0.749999H7.75V2.75H9.5V0.749999ZM6.75 1.75V3.5H8.75V1.75H6.75ZM7.75 2.5H6V4.5H7.75V2.5ZM5 3.5V5.25H7V3.5H5ZM6 4.25H4.25V6.25H6V4.25ZM3.25 5.25V7H5.25V5.25H3.25ZM4.25 8H6V6H4.25V8ZM5 7V8.75H7V7H5ZM6 9.75H7.75V7.75H6V9.75ZM6.75 8.75V10.5H8.75V8.75H6.75ZM7.75 11.5H9.5V9.5H7.75V11.5ZM8.5 10.5V12.25H10.5V10.5H8.5ZM9.5 11.25H6V13.25H9.5V11.25ZM25.25 0H26.25V-1H25.25V0ZM25.25 1.75V2.75H26.25V1.75H25.25ZM23.5 1.75H22.5V2.75H23.5V1.75ZM23.5 0V-1H22.5V0H23.5ZM21.75 1.75V0.749999H20.75V1.75H21.75ZM23.5 1.75H24.5V0.749999H23.5V1.75ZM23.5 3.5V4.5H24.5V3.5H23.5ZM21.75 3.5H20.75V4.5H21.75V3.5ZM20 3.5V2.5H19V3.5H20ZM21.75 3.5H22.75V2.5H21.75V3.5ZM21.75 5.25V6.25H22.75V5.25H21.75ZM20 5.25H19V6.25H20V5.25ZM18.25 5.25V4.25H17.25V5.25H18.25ZM20 5.25H21V4.25H20V5.25ZM20 7V8H21V7H20ZM18.25 7H17.25V8H18.25V7ZM16.5 7V6H15.5V7H16.5ZM18.25 7H19.25V6H18.25V7ZM18.25 8.75V9.75H19.25V8.75H18.25ZM16.5 8.75H15.5V9.75H16.5V8.75ZM14.75 8.75V7.75H13.75V8.75H14.75ZM16.5 8.75H17.5V7.75H16.5V8.75ZM16.5 10.5V11.5H17.5V10.5H16.5ZM14.75 10.5H13.75V11.5H14.75V10.5ZM13 10.5V9.5H12V10.5H13ZM14.75 10.5H15.75V9.5H14.75V10.5ZM14.75 12.25V13.25H15.75V12.25H14.75ZM13 12.25H12V13.25H13V12.25ZM24.25 0V1.75H26.25V0H24.25ZM25.25 0.749999H23.5V2.75H25.25V0.749999ZM24.5 1.75V0H22.5V1.75H24.5ZM23.5 1H25.25V-1H23.5V1ZM21.75 2.75H23.5V0.749999H21.75V2.75ZM22.5 1.75V3.5H24.5V1.75H22.5ZM23.5 2.5H21.75V4.5H23.5V2.5ZM22.75 3.5V1.75H20.75V3.5H22.75ZM20 4.5H21.75V2.5H20V4.5ZM20.75 3.5V5.25H22.75V3.5H20.75ZM21.75 4.25H20V6.25H21.75V4.25ZM21 5.25V3.5H19V5.25H21ZM18.25 6.25H20V4.25H18.25V6.25ZM19 5.25V7H21V5.25H19ZM20 6H18.25V8H20V6ZM19.25 7V5.25H17.25V7H19.25ZM16.5 8H18.25V6H16.5V8ZM17.25 7V8.75H19.25V7H17.25ZM18.25 7.75H16.5V9.75H18.25V7.75ZM17.5 8.75V7H15.5V8.75H17.5ZM14.75 9.75H16.5V7.75H14.75V9.75ZM15.5 8.75V10.5H17.5V8.75H15.5ZM16.5 9.5H14.75V11.5H16.5V9.5ZM15.75 10.5V8.75H13.75V10.5H15.75ZM13 11.5H14.75V9.5H13V11.5ZM13.75 10.5V12.25H15.75V10.5H13.75ZM14.75 11.25H13V13.25H14.75V11.25ZM14 12.25V10.5H12V12.25H14ZM27 12.25H26V13.25H27V12.25ZM27 0V-1H26V0H27ZM30.5 0H31.5V-1H30.5V0ZM30.5 5.25H29.5V6.25H30.5V5.25ZM35.75 5.25V6.25H36.75V5.25H35.75ZM35.75 0V-1H34.75V0H35.75ZM39.25 0H40.25V-1H39.25V0ZM39.25 12.25V13.25H40.25V12.25H39.25ZM35.75 12.25H34.75V13.25H35.75V12.25ZM35.75 7H36.75V6H35.75V7ZM30.5 7V6H29.5V7H30.5ZM30.5 12.25V13.25H31.5V12.25H30.5ZM28 12.25V0H26V12.25H28ZM27 1H30.5V-1H27V1ZM29.5 0V5.25H31.5V0H29.5ZM30.5 6.25H35.75V4.25H30.5V6.25ZM36.75 5.25V0H34.75V5.25H36.75ZM35.75 1H39.25V-1H35.75V1ZM38.25 0V12.25H40.25V0H38.25ZM39.25 11.25H35.75V13.25H39.25V11.25ZM36.75 12.25V7H34.75V12.25H36.75ZM35.75 6H30.5V8H35.75V6ZM29.5 7V12.25H31.5V7H29.5ZM30.5 11.25H27V13.25H30.5V11.25ZM46.25 12.25H45.25V13.25H46.25V12.25ZM46.25 1.75H47.25V0.749999H46.25V1.75ZM42.75 1.75H41.75V2.75H42.75V1.75ZM42.75 0V-1H41.75V0H42.75ZM53.25 0H54.25V-1H53.25V0ZM53.25 1.75V2.75H54.25V1.75H53.25ZM49.75 1.75V0.749999H48.75V1.75H49.75ZM49.75 12.25V13.25H50.75V12.25H49.75ZM47.25 12.25V1.75H45.25V12.25H47.25ZM46.25 0.749999H42.75V2.75H46.25V0.749999ZM43.75 1.75V0H41.75V1.75H43.75ZM42.75 1H53.25V-1H42.75V1ZM52.25 0V1.75H54.25V0H52.25ZM53.25 0.749999H49.75V2.75H53.25V0.749999ZM48.75 1.75V12.25H50.75V1.75H48.75ZM49.75 11.25H46.25V13.25H49.75V11.25ZM55 12.25H54V13.25H55V12.25ZM55 0V-1H54V0H55ZM58.5 0H59.5V-1H58.5V0ZM58.5 1.75H57.5V2.75H58.5V1.75ZM60.25 1.75H61.25V0.749999H60.25V1.75ZM60.25 3.5H59.25V4.5H60.25V3.5ZM62 3.5V4.5H63V3.5H62ZM62 1.75V0.749999H61V1.75H62ZM63.75 1.75V2.75H64.75V1.75H63.75ZM63.75 0V-1H62.75V0H63.75ZM67.25 0H68.25V-1H67.25V0ZM67.25 12.25V13.25H68.25V12.25H67.25ZM63.75 12.25H62.75V13.25H63.75V12.25ZM63.75 5.25H64.75V4.25H63.75V5.25ZM62 5.25V4.25H61V5.25H62ZM62 8.75V9.75H63V8.75H62ZM60.25 8.75H59.25V9.75H60.25V8.75ZM60.25 5.25H61.25V4.25H60.25V5.25ZM58.5 5.25V4.25H57.5V5.25H58.5ZM58.5 12.25V13.25H59.5V12.25H58.5ZM56 12.25V0H54V12.25H56ZM55 1H58.5V-1H55V1ZM57.5 0V1.75H59.5V0H57.5ZM58.5 2.75H60.25V0.749999H58.5V2.75ZM59.25 1.75V3.5H61.25V1.75H59.25ZM60.25 4.5H62V2.5H60.25V4.5ZM63 3.5V1.75H61V3.5H63ZM62 2.75H63.75V0.749999H62V2.75ZM64.75 1.75V0H62.75V1.75H64.75ZM63.75 1H67.25V-1H63.75V1ZM66.25 0V12.25H68.25V0H66.25ZM67.25 11.25H63.75V13.25H67.25V11.25ZM64.75 12.25V5.25H62.75V12.25H64.75ZM63.75 4.25H62V6.25H63.75V4.25ZM61 5.25V8.75H63V5.25H61ZM62 7.75H60.25V9.75H62V7.75ZM61.25 8.75V5.25H59.25V8.75H61.25ZM60.25 4.25H58.5V6.25H60.25V4.25ZM57.5 5.25V12.25H59.5V5.25H57.5ZM58.5 11.25H55V13.25H58.5V11.25ZM70.75 12.25H69.75V13.25H70.75V12.25ZM70.75 0V-1H69.75V0H70.75ZM74.25 0H75.25V-1H74.25V0ZM74.25 10.5H73.25V11.5H74.25V10.5ZM81.25 10.5H82.25V9.5H81.25V10.5ZM81.25 12.25V13.25H82.25V12.25H81.25ZM71.75 12.25V0H69.75V12.25H71.75ZM70.75 1H74.25V-1H70.75V1ZM73.25 0V10.5H75.25V0H73.25ZM74.25 11.5H81.25V9.5H74.25V11.5ZM80.25 10.5V12.25H82.25V10.5H80.25ZM81.25 11.25H70.75V13.25H81.25V11.25ZM84.75 12.25H83.75V13.25H84.75V12.25ZM84.75 10.5V9.5H83.75V10.5H84.75ZM86.5 10.5V11.5H87.5V10.5H86.5ZM86.5 8.75V7.75H85.5V8.75H86.5ZM88.25 8.75V9.75H89.25V8.75H88.25ZM88.25 7V6H87.25V7H88.25ZM90 7V8H91V7H90ZM90 5.25H91V4.25H90V5.25ZM88.25 5.25H87.25V6.25H88.25V5.25ZM88.25 3.5H89.25V2.5H88.25V3.5ZM86.5 3.5H85.5V4.5H86.5V3.5ZM86.5 1.75H87.5V0.749999H86.5V1.75ZM84.75 1.75H83.75V2.75H84.75V1.75ZM84.75 0V-1H83.75V0H84.75ZM88.25 0H89.25V-1H88.25V0ZM88.25 1.75H87.25V2.75H88.25V1.75ZM90 1.75H91V0.749999H90V1.75ZM90 3.5H89V4.5H90V3.5ZM91.75 3.5H92.75V2.5H91.75V3.5ZM91.75 5.25H90.75V6.25H91.75V5.25ZM93.5 5.25H94.5V4.25H93.5V5.25ZM93.5 7V8H94.5V7H93.5ZM91.75 7V6H90.75V7H91.75ZM91.75 8.75V9.75H92.75V8.75H91.75ZM90 8.75V7.75H89V8.75H90ZM90 10.5V11.5H91V10.5H90ZM88.25 10.5V9.5H87.25V10.5H88.25ZM88.25 12.25V13.25H89.25V12.25H88.25ZM85.75 12.25V10.5H83.75V12.25H85.75ZM84.75 11.5H86.5V9.5H84.75V11.5ZM87.5 10.5V8.75H85.5V10.5H87.5ZM86.5 9.75H88.25V7.75H86.5V9.75ZM89.25 8.75V7H87.25V8.75H89.25ZM88.25 8H90V6H88.25V8ZM91 7V5.25H89V7H91ZM90 4.25H88.25V6.25H90V4.25ZM89.25 5.25V3.5H87.25V5.25H89.25ZM88.25 2.5H86.5V4.5H88.25V2.5ZM87.5 3.5V1.75H85.5V3.5H87.5ZM86.5 0.749999H84.75V2.75H86.5V0.749999ZM85.75 1.75V0H83.75V1.75H85.75ZM84.75 1H88.25V-1H84.75V1ZM87.25 0V1.75H89.25V0H87.25ZM88.25 2.75H90V0.749999H88.25V2.75ZM89 1.75V3.5H91V1.75H89ZM90 4.5H91.75V2.5H90V4.5ZM90.75 3.5V5.25H92.75V3.5H90.75ZM91.75 6.25H93.5V4.25H91.75V6.25ZM92.5 5.25V7H94.5V5.25H92.5ZM93.5 6H91.75V8H93.5V6ZM90.75 7V8.75H92.75V7H90.75ZM91.75 7.75H90V9.75H91.75V7.75ZM89 8.75V10.5H91V8.75H89ZM90 9.5H88.25V11.5H90V9.5ZM87.25 10.5V12.25H89.25V10.5H87.25ZM88.25 11.25H84.75V13.25H88.25V11.25Z" fill="white" mask="url(#path-1-outside-1_831_54)"/>
</g>
</svg>
